# xmcd
#
# Track frame offsets:
#	150
#	16351
#	34793
#	53706
#	72139
#	91690
#	112074
#	126578
#	138984
#	153226
#	170109
#	185660
#	200206
#	218476
#	237263
#	253082
#	274132
#	290617
#	310478
#
# Disc length: 4383 seconds
#
# Revision: 1
# Processed by: cddbd v1.5.1PL0 Copyright (c) Steve Scherf et al.
# Submitted via: audiograbber 1.82.02
#
DISCID=24111d13
DTITLE=Pino Daniele - The Platinum Collection cd2
DYEAR=2004
DGENRE=Blues
TTITLE0=Yes I know my way
TTITLE1=Puorteme a casa mia
TTITLE2=Tutta 'nata storia
TTITLE3=Io vivo come te
TTITLE4=Keep on movin'
TTITLE5=E so' cuntento 'e sta'
TTITLE6=Alleria
TTITLE7=Notte che se ne va
TTITLE8=Ma che ho
TTITLE9=Un giorno che non va
TTITLE10=Bella 'mbriana
TTITLE11=I got the blues
TTITLE12=E pò che fà
TTITLE13=Annarè
TTITLE14=Viento 'e terra
TTITLE15=Sarà
TTITLE16=Gesù Gesù
TTITLE17=Che ore sò
TTITLE18=Disperazione
EXTD=
EXTT0=
EXTT1=
EXTT2=
EXTT3=
EXTT4=
EXTT5=
EXTT6=
EXTT7=
EXTT8=
EXTT9=
EXTT10=
EXTT11=
EXTT12=
EXTT13=
EXTT14=
EXTT15=
EXTT16=
EXTT17=
EXTT18=
PLAYORDER=
